# Blender v2.93.3 OBJ File: ''
# www.blender.org
mtllib cornell_box.mtl
o Plane
v -7.207003 0.000248 7.334319
v 8.792997 0.000248 7.334319
v -7.207003 0.000248 -8.665681
v 8.792997 0.000248 -8.665681
vt 1.000000 0.000000
vt 0.000000 1.000000
vt 0.000000 0.000000
vt 1.000000 1.000000
vn 0.0000 1.0000 0.0000
usemtl White
s off
f 2/1/1 3/2/1 1/3/1
f 2/1/1 4/4/1 3/2/1
o Plane.001
v -7.207003 20.000252 -8.665681
v 8.792997 20.000252 -8.665681
v -7.207003 20.000246 7.334319
v 8.792997 20.000246 7.334319
vt 1.000000 0.000000
vt 0.000000 1.000000
vt 0.000000 0.000000
vt 1.000000 1.000000
vn 0.0000 -1.0000 -0.0000
usemtl White
s off
f 6/5/2 7/6/2 5/7/2
f 6/5/2 8/8/2 7/6/2
o Plane.002
v -7.207003 20.000248 7.334319
v 8.792997 20.000248 7.334319
v -7.207003 0.000248 7.334320
v 8.792997 0.000248 7.334320
vt 1.000000 0.000000
vt 0.000000 1.000000
vt 0.000000 0.000000
vt 1.000000 1.000000
vn 0.0000 -0.0000 -1.0000
usemtl Red
s off
f 10/9/3 11/10/3 9/11/3
f 10/9/3 12/12/3 11/10/3
o Plane.003
v 8.792997 20.000248 -8.665683
v -7.207003 20.000248 -8.665678
v 8.792997 0.000248 -8.665684
v -7.207003 0.000248 -8.665679
vt 1.000000 0.000000
vt 0.000000 1.000000
vt 0.000000 0.000000
vt 1.000000 1.000000
vn 0.0000 -0.0000 1.0000
usemtl Green
s off
f 14/13/4 15/14/4 13/15/4
f 14/13/4 16/16/4 15/14/4
o Plane.004
v 8.792997 20.000248 7.334319
v 8.792997 20.000248 -8.665681
v 8.792998 0.000248 7.334319
v 8.792998 0.000248 -8.665681
vt 1.000000 0.000000
vt 0.000000 1.000000
vt 0.000000 0.000000
vt 1.000000 1.000000
vn -1.0000 0.0000 0.0000
usemtl White
s off
f 18/17/5 19/18/5 17/19/5
f 18/17/5 20/20/5 19/18/5
o Plane.005
v -7.207006 20.000248 -8.665681
v -7.206998 20.000248 7.334320
v -7.207007 0.000248 -8.665681
v -7.206999 0.000248 7.334320
vt 1.000000 0.000000
vt 0.000000 1.000000
vt 0.000000 0.000000
vt 1.000000 1.000000
vn 1.0000 0.0000 -0.0000
usemtl White
s off
f 22/21/6 23/22/6 21/23/6
f 22/21/6 24/24/6 23/22/6
o Cube_Cube.001
v 0.415102 0.000248 -3.130032
v 0.415102 4.800248 -3.130032
v 3.168269 0.000248 -7.061963
v 3.168269 4.800248 -7.061963
v 4.347032 0.000248 -0.376865
v 4.347032 4.800248 -0.376865
v 7.100199 0.000248 -4.308796
v 7.100199 4.800248 -4.308796
vt 0.625000 0.000000
vt 0.375000 0.250000
vt 0.375000 0.000000
vt 0.625000 0.250000
vt 0.375000 0.500000
vt 0.625000 0.500000
vt 0.375000 0.750000
vt 0.625000 0.750000
vt 0.375000 1.000000
vt 0.125000 0.750000
vt 0.125000 0.500000
vt 0.875000 0.500000
vt 0.625000 1.000000
vt 0.875000 0.750000
vn -0.8192 0.0000 -0.5736
vn 0.5736 0.0000 -0.8192
vn 0.8192 0.0000 0.5736
vn -0.5736 0.0000 0.8192
vn 0.0000 -1.0000 0.0000
vn 0.0000 1.0000 0.0000
usemtl White
s off
f 26/25/7 27/26/7 25/27/7
f 28/28/8 31/29/8 27/26/8
f 32/30/9 29/31/9 31/29/9
f 30/32/10 25/33/10 29/31/10
f 31/29/11 25/34/11 27/35/11
f 28/36/12 30/32/12 32/30/12
f 26/25/7 28/28/7 27/26/7
f 28/28/8 32/30/8 31/29/8
f 32/30/9 30/32/9 29/31/9
f 30/32/10 26/37/10 25/33/10
f 31/29/11 29/31/11 25/34/11
f 28/36/12 26/38/12 30/32/12
o Cube.001_Cube.002
v -4.772085 0.000248 5.248279
v -4.772085 12.000247 5.248279
v -5.813974 0.000248 -0.660568
v -5.813974 12.000247 -0.660568
v 1.136762 0.000248 4.206389
v 1.136762 12.000247 4.206389
v 0.094873 0.000248 -1.702457
v 0.094873 12.000247 -1.702457
vt 0.625000 0.000000
vt 0.375000 0.250000
vt 0.375000 0.000000
vt 0.625000 0.250000
vt 0.375000 0.500000
vt 0.625000 0.500000
vt 0.375000 0.750000
vt 0.625000 0.750000
vt 0.375000 1.000000
vt 0.125000 0.750000
vt 0.125000 0.500000
vt 0.875000 0.500000
vt 0.625000 1.000000
vt 0.875000 0.750000
vn -0.9848 0.0000 0.1736
vn -0.1736 0.0000 -0.9848
vn 0.9848 0.0000 -0.1736
vn 0.1736 0.0000 0.9848
vn 0.0000 -1.0000 -0.0000
vn 0.0000 1.0000 -0.0000
usemtl White
s off
f 34/39/13 35/40/13 33/41/13
f 36/42/14 39/43/14 35/40/14
f 40/44/15 37/45/15 39/43/15
f 38/46/16 33/47/16 37/45/16
f 39/43/17 33/48/17 35/49/17
f 36/50/18 38/46/18 40/44/18
f 34/39/13 36/42/13 35/40/13
f 36/42/14 40/44/14 39/43/14
f 40/44/15 38/46/15 37/45/15
f 38/46/16 34/51/16 33/47/16
f 39/43/17 37/45/17 33/48/17
f 36/50/18 34/52/18 38/46/18
