# Blender v2.93.3 OBJ File: ''
# www.blender.org
mtllib SSAO_test.mtl
o Cube_Cube.001
v -300.000000 0.799857 300.000000
v -300.000000 -0.799857 -300.000000
v -300.000000 -0.800143 300.000000
v -300.000000 0.800143 -300.000000
v 300.000000 -0.799857 -300.000000
v 300.000000 0.800143 -300.000000
v 300.000000 -0.800143 300.000000
v 300.000000 0.799857 300.000000
v -4.000000 8.746743 4.000005
v -4.000000 0.746753 -4.000000
v -4.000000 0.746743 4.000000
v -4.000000 8.746753 -3.999994
v 4.000000 0.746753 -4.000000
v 4.000000 8.746753 -3.999994
v 4.000000 0.746743 4.000000
v 4.000000 8.746743 4.000005
v -14.274824 11.203463 18.313816
v -22.763355 0.390117 14.841387
v -21.059906 2.560098 22.350676
v -15.978273 9.033481 10.804523
v -16.470640 -4.549696 14.841383
v -9.685558 4.093668 10.804519
v -14.767190 -2.379714 22.350676
v -7.982110 6.263650 18.313816
v 6.110176 12.391769 9.384384
v 6.110176 2.967469 2.943960
v 6.110176 2.967463 9.384377
v 6.110176 12.391778 2.943970
v 12.550592 2.967469 2.943960
v 12.550592 12.391778 2.943970
v 12.550592 2.967463 9.384377
v 12.550592 12.391769 9.384384
v -9.354064 12.496293 -10.110534
v -9.354064 0.398107 -18.378248
v -9.354064 0.398098 -10.110544
v -9.354064 12.496303 -18.378239
v -1.086364 0.398107 -18.378248
v -1.086364 12.496303 -18.378239
v -1.086364 0.398098 -10.110544
v -1.086364 12.496293 -10.110534
v -18.380527 9.709393 -4.014787
v -18.380527 0.673390 -12.014792
v -18.380527 0.673385 -4.014792
v -18.380527 9.709398 -12.014783
v -10.380528 0.673390 -12.014792
v -10.380528 9.709398 -12.014783
v -10.380528 0.673385 -4.014792
v -10.380528 9.709393 -4.014787
v 15.132352 9.853883 -20.958431
v 15.132352 0.429572 -27.398855
v 15.132352 0.429567 -20.958441
v 15.132352 9.853887 -27.398842
v 21.572763 0.429572 -27.398855
v 21.572763 9.853887 -27.398842
v 21.572763 0.429567 -20.958441
v 21.572763 9.853883 -20.958431
v 20.893995 6.328009 -28.503471
v 20.893995 -3.096298 -34.943893
v 20.893995 -3.096303 -28.503481
v 20.893995 6.328013 -34.943893
v 27.334412 -3.096298 -34.943893
v 27.334412 6.328013 -34.943893
v 27.334412 -3.096303 -28.503481
v 27.334412 6.328009 -28.503471
v 7.012456 10.368584 -31.598339
v 7.012456 0.436967 -41.529976
v 7.012456 0.436953 -31.598349
v 7.012456 10.368597 -41.529976
v 16.944084 0.436967 -41.529976
v 16.944084 10.368597 -41.529976
v 16.944084 0.436953 -31.598349
v 16.944084 10.368584 -31.598339
v 0.595922 -0.821750 -25.151993
v 0.595922 0.710761 -36.463402
v 0.595922 -5.046333 -33.576393
v 0.595922 4.935345 -28.039005
v 7.036338 0.710761 -36.463402
v 7.036338 4.935345 -28.039005
v 7.036338 -5.046333 -33.576393
v 7.036338 -0.821750 -25.151993
v -14.270084 8.710234 -22.365570
v -20.103289 12.303456 -31.369041
v -20.103291 5.660049 -26.912012
v -14.270081 15.353640 -26.822605
v -14.628466 9.053607 -36.213089
v -8.795258 12.103791 -31.666649
v -14.628468 2.410200 -31.756058
v -8.795258 5.460382 -27.209621
vt 0.625000 0.500000
vt 0.375000 0.750000
vt 0.375000 0.500000
vt 0.375000 0.750000
vt 0.125000 0.500000
vt 0.375000 0.500000
vt 0.625000 0.500000
vt 0.375000 0.250000
vt 0.625000 0.250000
vt 0.875000 0.750000
vt 0.625000 0.500000
vt 0.875000 0.500000
vt 0.625000 0.750000
vt 0.375000 0.500000
vt 0.625000 0.500000
vt 0.625000 1.000000
vt 0.375000 0.750000
vt 0.625000 0.750000
vt 0.625000 0.500000
vt 0.375000 0.250000
vt 0.625000 0.250000
vt 0.625000 1.000000
vt 0.375000 0.750000
vt 0.625000 0.750000
vt 0.375000 0.750000
vt 0.125000 0.500000
vt 0.375000 0.500000
vt 0.375000 0.500000
vt 0.625000 0.500000
vt 0.125000 0.500000
vt 0.125000 0.500000
vt 0.625000 0.500000
vt 0.375000 0.250000
vt 0.625000 0.250000
vt 0.625000 1.000000
vt 0.625000 0.750000
vt 0.625000 1.000000
vt 0.375000 0.750000
vt 0.625000 0.750000
vt 0.875000 0.750000
vt 0.875000 0.500000
vt 0.625000 0.750000
vt 0.375000 0.500000
vt 0.625000 1.000000
vt 0.625000 0.750000
vt 0.875000 0.500000
vt 0.625000 0.750000
vt 0.625000 1.000000
vt 0.375000 0.750000
vt 0.875000 0.500000
vt 0.625000 0.250000
vt 0.375000 0.000000
vt 0.625000 0.000000
vt 0.375000 0.500000
vt 0.125000 0.750000
vt 0.125000 0.500000
vt 0.625000 0.500000
vt 0.375000 0.250000
vt 0.125000 0.500000
vt 0.625000 0.500000
vt 0.375000 0.250000
vt 0.625000 0.250000
vt 0.875000 0.750000
vt 0.625000 0.500000
vt 0.875000 0.500000
vt 0.875000 0.750000
vt 0.875000 0.500000
vt 0.375000 0.500000
vt 0.625000 0.750000
vt 0.375000 0.500000
vt 0.375000 0.500000
vt 0.625000 0.250000
vt 0.625000 0.500000
vt 0.375000 1.000000
vt 0.625000 0.750000
vt 0.625000 1.000000
vt 0.375000 0.000000
vt 0.625000 0.000000
vt 0.375000 0.000000
vt 0.625000 0.000000
vt 0.375000 0.750000
vt 0.125000 0.500000
vt 0.625000 0.750000
vt 0.375000 0.250000
vt 0.625000 0.250000
vt 0.875000 0.750000
vt 0.875000 0.500000
vt 0.375000 0.500000
vt 0.375000 0.750000
vt 0.125000 0.500000
vt 0.375000 0.750000
vt 0.125000 0.500000
vt 0.375000 0.000000
vt 0.625000 0.000000
vt 0.625000 1.000000
vt 0.625000 0.250000
vt 0.375000 0.000000
vt 0.625000 0.000000
vt 0.875000 0.750000
vt 0.875000 0.500000
vt 0.625000 0.000000
vt 0.375000 0.250000
vt 0.375000 0.000000
vt 0.625000 0.250000
vt 0.375000 0.250000
vt 0.625000 0.000000
vt 0.375000 0.000000
vt 0.875000 0.750000
vt 0.875000 0.500000
vt 0.625000 0.000000
vt 0.375000 0.250000
vt 0.375000 0.000000
vt 0.375000 0.250000
vt 0.625000 0.250000
vt 0.625000 0.000000
vt 0.375000 0.000000
vt 0.625000 0.250000
vt 0.625000 1.000000
vt 0.375000 0.750000
vt 0.875000 0.500000
vt 0.125000 0.500000
vt 0.625000 0.000000
vt 0.375000 0.000000
vt 0.625000 1.000000
vt 0.375000 0.000000
vt 0.625000 0.000000
vt 0.625000 1.000000
vt 0.125000 0.500000
vt 0.875000 0.750000
vt 0.875000 0.500000
vt 0.125000 0.750000
vt 0.375000 1.000000
vt 0.375000 1.000000
vt 0.125000 0.750000
vt 0.125000 0.750000
vt 0.125000 0.750000
vt 0.375000 1.000000
vt 0.375000 1.000000
vt 0.375000 1.000000
vt 0.875000 0.750000
vt 0.375000 1.000000
vt 0.875000 0.750000
vt 0.125000 0.750000
vt 0.375000 0.250000
vt 0.125000 0.750000
vt 0.125000 0.750000
vt 0.125000 0.750000
vt 0.375000 1.000000
vt 0.375000 1.000000
vt 0.875000 0.750000
vt 0.125000 0.750000
vt 0.375000 1.000000
vt 0.375000 1.000000
vt 0.125000 0.750000
vn 1.0000 -0.0000 0.0000
vn 0.0000 -1.0000 -0.0000
vn 0.0000 0.0000 -1.0000
vn 0.0000 1.0000 0.0000
vn 0.6844 -0.4062 -0.6055
vn 0.0000 -0.8939 0.4483
vn -0.2129 -0.2712 -0.9387
vn 0.0000 -0.0000 1.0000
vn 0.5796 0.7383 -0.3448
vn 0.0000 -0.8304 0.5571
vn 0.7292 0.3813 0.5683
vn -1.0000 0.0000 0.0000
vn -0.5796 -0.7383 0.3448
vn 0.0000 0.8939 -0.4483
vn -0.7292 -0.3813 -0.5683
vn -0.7866 0.6175 0.0000
vn 0.7866 -0.6175 -0.0000
vn -0.6844 0.4062 0.6055
vn 0.0000 0.8304 -0.5571
vn 0.2129 0.2712 0.9387
vn 0.0000 -0.4483 -0.8939
vn 0.0000 0.4483 0.8939
usemtl None
s 1
f 54/1/1 55/2/1 53/3/1
f 15/4/2 10/5/2 13/6/2
f 30/7/3 26/8/3 28/9/3
f 9/10/4 14/11/4 12/12/4
f 88/13/5 85/14/5 86/15/5
f 73/16/6 79/17/6 80/18/6
f 22/19/7 18/20/7 20/21/7
f 57/22/8 63/23/8 64/24/8
f 47/25/2 42/26/2 45/27/2
f 64/24/1 61/28/1 62/29/1
f 55/2/2 50/30/2 53/3/2
f 63/23/2 58/31/2 61/28/2
f 46/32/3 42/33/3 44/34/3
f 49/35/8 55/2/8 56/36/8
f 65/37/8 71/38/8 72/39/8
f 57/40/4 62/29/4 60/41/4
f 32/42/1 29/43/1 30/7/1
f 41/44/8 47/25/8 48/45/8
f 20/46/9 24/47/9 22/19/9
f 81/48/10 87/49/10 88/13/10
f 84/50/11 88/13/11 86/15/11
f 76/51/12 75/52/12 73/53/12
f 21/54/13 19/55/13 18/56/13
f 78/57/14 74/58/14 76/51/14
f 87/49/15 82/59/15 85/14/15
f 70/60/3 66/61/3 68/62/3
f 33/63/4 38/64/4 36/65/4
f 65/66/4 70/60/4 68/67/4
f 72/39/1 69/68/1 70/60/1
f 40/69/1 37/70/1 38/64/1
f 5/71/3 4/72/3 6/73/3
f 3/74/8 8/75/8 1/76/8
f 20/21/16 19/77/16 17/78/16
f 44/34/12 43/79/12 41/80/12
f 31/81/2 26/82/2 29/43/2
f 16/83/1 13/6/1 14/11/1
f 54/1/3 50/84/3 52/85/3
f 25/86/4 30/7/4 28/87/4
f 24/47/17 21/54/17 22/19/17
f 80/18/1 77/88/1 78/57/1
f 7/89/2 2/90/2 5/71/2
f 39/91/2 34/92/2 37/70/2
f 52/85/12 51/93/12 49/94/12
f 33/95/8 39/91/8 40/69/8
f 84/96/18 83/97/18 81/98/18
f 41/99/4 46/32/4 44/100/4
f 57/101/12 58/102/12 59/103/12
f 62/29/3 58/102/3 60/104/3
f 84/96/19 85/14/19 82/105/19
f 65/106/12 66/61/12 67/107/12
f 49/108/4 54/1/4 52/109/4
f 33/110/12 34/111/12 35/112/12
f 14/11/3 10/113/3 12/114/3
f 9/115/12 10/113/12 11/116/12
f 48/45/1 45/27/1 46/32/1
f 38/64/3 34/111/3 36/117/3
f 17/118/20 23/119/20 24/47/20
f 4/120/4 8/75/4 6/73/4
f 79/17/21 74/121/21 77/88/21
f 25/122/12 26/8/12 27/123/12
f 8/75/1 5/71/1 6/73/1
f 9/124/8 15/4/8 16/83/8
f 4/72/12 3/125/12 1/126/12
f 25/127/8 31/81/8 32/42/8
f 71/38/2 66/128/2 69/68/2
f 73/129/22 78/57/22 76/130/22
f 54/1/1 56/36/1 55/2/1
f 15/4/2 11/131/2 10/5/2
f 30/7/3 29/43/3 26/8/3
f 9/10/4 16/83/4 14/11/4
f 88/13/5 87/49/5 85/14/5
f 73/16/6 75/132/6 79/17/6
f 22/19/7 21/54/7 18/20/7
f 57/22/8 59/133/8 63/23/8
f 47/25/2 43/134/2 42/26/2
f 64/24/1 63/23/1 61/28/1
f 55/2/2 51/135/2 50/30/2
f 63/23/2 59/136/2 58/31/2
f 46/32/3 45/27/3 42/33/3
f 49/35/8 51/137/8 55/2/8
f 65/37/8 67/138/8 71/38/8
f 57/40/4 64/24/4 62/29/4
f 32/42/1 31/81/1 29/43/1
f 41/44/8 43/139/8 47/25/8
f 20/46/9 17/140/9 24/47/9
f 81/48/10 83/141/10 87/49/10
f 84/50/11 81/142/11 88/13/11
f 76/51/12 74/58/12 75/52/12
f 21/54/13 23/119/13 19/55/13
f 78/57/14 77/88/14 74/58/14
f 87/49/15 83/143/15 82/59/15
f 70/60/3 69/68/3 66/61/3
f 33/63/4 40/69/4 38/64/4
f 65/66/4 72/39/4 70/60/4
f 72/39/1 71/38/1 69/68/1
f 40/69/1 39/91/1 37/70/1
f 5/71/3 2/144/3 4/72/3
f 3/74/8 7/89/8 8/75/8
f 20/21/16 18/20/16 19/77/16
f 44/34/12 42/33/12 43/79/12
f 31/81/2 27/145/2 26/82/2
f 16/83/1 15/4/1 13/6/1
f 54/1/3 53/3/3 50/84/3
f 25/86/4 32/42/4 30/7/4
f 24/47/17 23/119/17 21/54/17
f 80/18/1 79/17/1 77/88/1
f 7/89/2 3/146/2 2/90/2
f 39/91/2 35/147/2 34/92/2
f 52/85/12 50/84/12 51/93/12
f 33/95/8 35/148/8 39/91/8
f 84/96/18 82/105/18 83/97/18
f 41/99/4 48/45/4 46/32/4
f 57/101/12 60/104/12 58/102/12
f 62/29/3 61/28/3 58/102/3
f 84/96/19 86/15/19 85/14/19
f 65/106/12 68/62/12 66/61/12
f 49/108/4 56/36/4 54/1/4
f 33/110/12 36/117/12 34/111/12
f 14/11/3 13/6/3 10/113/3
f 9/115/12 12/114/12 10/113/12
f 48/45/1 47/25/1 45/27/1
f 38/64/3 37/70/3 34/111/3
f 17/118/20 19/149/20 23/119/20
f 4/120/4 1/150/4 8/75/4
f 79/17/21 75/151/21 74/121/21
f 25/122/12 28/9/12 26/8/12
f 8/75/1 7/89/1 5/71/1
f 9/124/8 11/152/8 15/4/8
f 4/72/12 2/144/12 3/125/12
f 25/127/8 27/153/8 31/81/8
f 71/38/2 67/154/2 66/128/2
f 73/129/22 80/18/22 78/57/22
