# Blender v2.93.3 OBJ File: ''
# www.blender.org
mtllib SSAO_test.mtl
o Cube_Cube.001
v -20.000000 0.199997 20.000000
v -20.000000 -0.200003 20.000000
v -20.000000 -0.199997 -20.000000
v -20.000000 0.200003 -20.000000
v 20.000000 -0.199997 -20.000000
v 20.000000 0.200003 -20.000000
v 20.000000 -0.200003 20.000000
v 20.000000 0.199997 20.000000
v -1.000000 2.186687 1.000000
v -1.000000 0.186687 1.000000
v -1.000000 0.186687 -1.000000
v -1.000000 2.186687 -1.000000
v 1.000000 0.186687 -1.000000
v 1.000000 2.186687 -1.000000
v 1.000000 0.186687 1.000000
v 1.000000 2.186687 1.000000
v -3.171632 3.089712 5.496033
v -3.171632 0.163096 5.496032
v -3.171632 0.163096 3.496032
v -3.171632 3.089713 3.496032
v -1.171632 0.163096 3.496032
v -1.171632 3.089713 3.496032
v -1.171632 0.163096 5.496032
v -1.171632 3.089712 5.496033
v 1.527544 2.463464 2.346094
v 1.527544 0.107387 2.346094
v 1.527544 0.107387 0.735990
v 1.527544 2.463465 0.735990
v 3.137648 0.107387 0.735990
v 3.137648 2.463465 0.735990
v 3.137648 0.107387 2.346094
v 3.137648 2.463464 2.346094
v -2.338516 3.124071 -2.527636
v -2.338516 0.099522 -2.527636
v -2.338516 0.099523 -4.594562
v -2.338516 3.124072 -4.594562
v -0.271591 0.099523 -4.594562
v -0.271591 3.124072 -4.594562
v -0.271591 0.099522 -2.527636
v -0.271591 3.124071 -2.527636
v -4.595132 2.427347 -1.003698
v -4.595132 0.168345 -1.003698
v -4.595132 0.168345 -3.003698
v -4.595132 2.427347 -3.003698
v -2.595132 0.168345 -3.003698
v -2.595132 2.427347 -3.003698
v -2.595132 0.168345 -1.003698
v -2.595132 2.427347 -1.003698
v 3.783088 2.463466 -5.239610
v 3.783088 0.107388 -5.239610
v 3.783088 0.107388 -6.849714
v 3.783088 2.463466 -6.849713
v 5.393191 0.107388 -6.849714
v 5.393191 2.463466 -6.849713
v 5.393191 0.107388 -5.239610
v 5.393191 2.463466 -5.239610
v 5.223499 1.581996 -7.125870
v 5.223499 -0.774082 -7.125870
v 5.223499 -0.774082 -8.735973
v 5.223499 1.581996 -8.735973
v 6.833603 -0.774082 -8.735973
v 6.833603 1.581996 -8.735973
v 6.833603 -0.774082 -7.125870
v 6.833603 1.581996 -7.125870
v 1.753114 2.592140 -7.899587
v 1.753114 0.109232 -7.899587
v 1.753114 0.109233 -10.382494
v 1.753114 2.592141 -10.382494
v 4.236021 0.109233 -10.382494
v 4.236021 2.592141 -10.382494
v 4.236021 0.109232 -7.899587
v 4.236021 2.592140 -7.899587
v 0.001296 2.084900 -6.896873
v 0.001296 -0.271178 -6.896873
v 0.001296 -0.271178 -8.506976
v 0.001296 2.084900 -8.506976
v 1.611400 -0.271178 -8.506976
v 1.611400 2.084900 -8.506976
v 1.611400 -0.271178 -6.896873
v 1.611400 2.084900 -6.896873
vt 0.625000 0.000000
vt 0.375000 0.250000
vt 0.375000 0.000000
vt 0.625000 0.250000
vt 0.375000 0.500000
vt 0.625000 0.500000
vt 0.375000 0.750000
vt 0.625000 0.750000
vt 0.375000 1.000000
vt 0.125000 0.750000
vt 0.125000 0.500000
vt 0.875000 0.500000
vt 0.625000 0.000000
vt 0.375000 0.250000
vt 0.375000 0.000000
vt 0.625000 0.250000
vt 0.375000 0.500000
vt 0.625000 0.500000
vt 0.375000 0.750000
vt 0.625000 0.750000
vt 0.375000 1.000000
vt 0.125000 0.750000
vt 0.125000 0.500000
vt 0.875000 0.500000
vt 0.625000 0.000000
vt 0.375000 0.250000
vt 0.375000 0.000000
vt 0.625000 0.250000
vt 0.375000 0.500000
vt 0.625000 0.500000
vt 0.375000 0.750000
vt 0.625000 0.750000
vt 0.375000 1.000000
vt 0.125000 0.750000
vt 0.125000 0.500000
vt 0.875000 0.500000
vt 0.625000 0.000000
vt 0.375000 0.250000
vt 0.375000 0.000000
vt 0.625000 0.250000
vt 0.375000 0.500000
vt 0.625000 0.500000
vt 0.375000 0.750000
vt 0.625000 0.750000
vt 0.375000 1.000000
vt 0.125000 0.750000
vt 0.125000 0.500000
vt 0.875000 0.500000
vt 0.625000 0.000000
vt 0.375000 0.250000
vt 0.375000 0.000000
vt 0.625000 0.250000
vt 0.375000 0.500000
vt 0.625000 0.500000
vt 0.375000 0.750000
vt 0.625000 0.750000
vt 0.375000 1.000000
vt 0.125000 0.750000
vt 0.125000 0.500000
vt 0.875000 0.500000
vt 0.625000 0.000000
vt 0.375000 0.250000
vt 0.375000 0.000000
vt 0.625000 0.250000
vt 0.375000 0.500000
vt 0.625000 0.500000
vt 0.375000 0.750000
vt 0.625000 0.750000
vt 0.375000 1.000000
vt 0.125000 0.750000
vt 0.125000 0.500000
vt 0.875000 0.500000
vt 0.625000 0.000000
vt 0.375000 0.250000
vt 0.375000 0.000000
vt 0.625000 0.250000
vt 0.375000 0.500000
vt 0.625000 0.500000
vt 0.375000 0.750000
vt 0.625000 0.750000
vt 0.375000 1.000000
vt 0.125000 0.750000
vt 0.125000 0.500000
vt 0.875000 0.500000
vt 0.625000 0.000000
vt 0.375000 0.250000
vt 0.375000 0.000000
vt 0.625000 0.250000
vt 0.375000 0.500000
vt 0.625000 0.500000
vt 0.375000 0.750000
vt 0.625000 0.750000
vt 0.375000 1.000000
vt 0.125000 0.750000
vt 0.125000 0.500000
vt 0.875000 0.500000
vt 0.625000 0.000000
vt 0.375000 0.250000
vt 0.375000 0.000000
vt 0.625000 0.250000
vt 0.375000 0.500000
vt 0.625000 0.500000
vt 0.375000 0.750000
vt 0.625000 0.750000
vt 0.375000 1.000000
vt 0.125000 0.750000
vt 0.125000 0.500000
vt 0.875000 0.500000
vt 0.625000 0.000000
vt 0.375000 0.250000
vt 0.375000 0.000000
vt 0.625000 0.250000
vt 0.375000 0.500000
vt 0.625000 0.500000
vt 0.375000 0.750000
vt 0.625000 0.750000
vt 0.375000 1.000000
vt 0.125000 0.750000
vt 0.125000 0.500000
vt 0.875000 0.500000
vt 0.625000 1.000000
vt 0.875000 0.750000
vt 0.625000 1.000000
vt 0.875000 0.750000
vt 0.625000 1.000000
vt 0.875000 0.750000
vt 0.625000 1.000000
vt 0.875000 0.750000
vt 0.625000 1.000000
vt 0.875000 0.750000
vt 0.625000 1.000000
vt 0.875000 0.750000
vt 0.625000 1.000000
vt 0.875000 0.750000
vt 0.625000 1.000000
vt 0.875000 0.750000
vt 0.625000 1.000000
vt 0.875000 0.750000
vt 0.625000 1.000000
vt 0.875000 0.750000
vn -1.0000 0.0000 0.0000
vn 0.0000 0.0000 -1.0000
vn 1.0000 0.0000 0.0000
vn 0.0000 0.0000 1.0000
vn 0.0000 -1.0000 -0.0000
vn 0.0000 1.0000 0.0000
usemtl None
s 1
f 1/1/1 3/2/1 2/3/1
f 4/4/2 5/5/2 3/2/2
f 6/6/3 7/7/3 5/5/3
f 8/8/4 2/9/4 7/7/4
f 5/5/5 2/10/5 3/11/5
f 4/12/6 8/8/6 6/6/6
f 9/13/1 11/14/1 10/15/1
f 12/16/2 13/17/2 11/14/2
f 14/18/3 15/19/3 13/17/3
f 16/20/4 10/21/4 15/19/4
f 13/17/5 10/22/5 11/23/5
f 12/24/6 16/20/6 14/18/6
f 17/25/1 19/26/1 18/27/1
f 20/28/2 21/29/2 19/26/2
f 22/30/3 23/31/3 21/29/3
f 24/32/4 18/33/4 23/31/4
f 21/29/5 18/34/5 19/35/5
f 20/36/6 24/32/6 22/30/6
f 25/37/1 27/38/1 26/39/1
f 28/40/2 29/41/2 27/38/2
f 30/42/3 31/43/3 29/41/3
f 32/44/4 26/45/4 31/43/4
f 29/41/5 26/46/5 27/47/5
f 28/48/6 32/44/6 30/42/6
f 33/49/1 35/50/1 34/51/1
f 36/52/2 37/53/2 35/50/2
f 38/54/3 39/55/3 37/53/3
f 40/56/4 34/57/4 39/55/4
f 37/53/5 34/58/5 35/59/5
f 36/60/6 40/56/6 38/54/6
f 41/61/1 43/62/1 42/63/1
f 44/64/2 45/65/2 43/62/2
f 46/66/3 47/67/3 45/65/3
f 48/68/4 42/69/4 47/67/4
f 45/65/5 42/70/5 43/71/5
f 44/72/6 48/68/6 46/66/6
f 49/73/1 51/74/1 50/75/1
f 52/76/2 53/77/2 51/74/2
f 54/78/3 55/79/3 53/77/3
f 56/80/4 50/81/4 55/79/4
f 53/77/5 50/82/5 51/83/5
f 52/84/6 56/80/6 54/78/6
f 57/85/1 59/86/1 58/87/1
f 60/88/2 61/89/2 59/86/2
f 62/90/3 63/91/3 61/89/3
f 64/92/4 58/93/4 63/91/4
f 61/89/5 58/94/5 59/95/5
f 60/96/6 64/92/6 62/90/6
f 65/97/1 67/98/1 66/99/1
f 68/100/2 69/101/2 67/98/2
f 70/102/3 71/103/3 69/101/3
f 72/104/4 66/105/4 71/103/4
f 69/101/5 66/106/5 67/107/5
f 68/108/6 72/104/6 70/102/6
f 73/109/1 75/110/1 74/111/1
f 76/112/2 77/113/2 75/110/2
f 78/114/3 79/115/3 77/113/3
f 80/116/4 74/117/4 79/115/4
f 77/113/5 74/118/5 75/119/5
f 76/120/6 80/116/6 78/114/6
f 1/1/1 4/4/1 3/2/1
f 4/4/2 6/6/2 5/5/2
f 6/6/3 8/8/3 7/7/3
f 8/8/4 1/121/4 2/9/4
f 5/5/5 7/7/5 2/10/5
f 4/12/6 1/122/6 8/8/6
f 9/13/1 12/16/1 11/14/1
f 12/16/2 14/18/2 13/17/2
f 14/18/3 16/20/3 15/19/3
f 16/20/4 9/123/4 10/21/4
f 13/17/5 15/19/5 10/22/5
f 12/24/6 9/124/6 16/20/6
f 17/25/1 20/28/1 19/26/1
f 20/28/2 22/30/2 21/29/2
f 22/30/3 24/32/3 23/31/3
f 24/32/4 17/125/4 18/33/4
f 21/29/5 23/31/5 18/34/5
f 20/36/6 17/126/6 24/32/6
f 25/37/1 28/40/1 27/38/1
f 28/40/2 30/42/2 29/41/2
f 30/42/3 32/44/3 31/43/3
f 32/44/4 25/127/4 26/45/4
f 29/41/5 31/43/5 26/46/5
f 28/48/6 25/128/6 32/44/6
f 33/49/1 36/52/1 35/50/1
f 36/52/2 38/54/2 37/53/2
f 38/54/3 40/56/3 39/55/3
f 40/56/4 33/129/4 34/57/4
f 37/53/5 39/55/5 34/58/5
f 36/60/6 33/130/6 40/56/6
f 41/61/1 44/64/1 43/62/1
f 44/64/2 46/66/2 45/65/2
f 46/66/3 48/68/3 47/67/3
f 48/68/4 41/131/4 42/69/4
f 45/65/5 47/67/5 42/70/5
f 44/72/6 41/132/6 48/68/6
f 49/73/1 52/76/1 51/74/1
f 52/76/2 54/78/2 53/77/2
f 54/78/3 56/80/3 55/79/3
f 56/80/4 49/133/4 50/81/4
f 53/77/5 55/79/5 50/82/5
f 52/84/6 49/134/6 56/80/6
f 57/85/1 60/88/1 59/86/1
f 60/88/2 62/90/2 61/89/2
f 62/90/3 64/92/3 63/91/3
f 64/92/4 57/135/4 58/93/4
f 61/89/5 63/91/5 58/94/5
f 60/96/6 57/136/6 64/92/6
f 65/97/1 68/100/1 67/98/1
f 68/100/2 70/102/2 69/101/2
f 70/102/3 72/104/3 71/103/3
f 72/104/4 65/137/4 66/105/4
f 69/101/5 71/103/5 66/106/5
f 68/108/6 65/138/6 72/104/6
f 73/109/1 76/112/1 75/110/1
f 76/112/2 78/114/2 77/113/2
f 78/114/3 80/116/3 79/115/3
f 80/116/4 73/139/4 74/117/4
f 77/113/5 79/115/5 74/118/5
f 76/120/6 73/140/6 80/116/6
