# Blender v2.93.3 OBJ File: ''
# www.blender.org
mtllib untitled.mtl
o Cube_Cube.001
v -1.000000 -1.000000 1.000000
v -1.000000 1.000000 1.000000
v -1.000000 1.000000 -1.000000
v -1.000000 -1.000000 -1.000000
v 1.000000 1.000000 -1.000000
v 1.000000 -1.000000 -1.000000
v 1.000000 1.000000 1.000000
v 1.000000 -1.000000 1.000000
v 0.154650 2.196336 -0.279665
v 0.154650 2.196337 -2.279665
v 0.154650 0.196336 -2.279665
v 0.154650 0.196336 -1.000000
v 0.154650 1.000000 -1.000000
v 0.154650 1.000000 -0.279665
v 2.154650 2.196337 -2.279665
v 2.154650 0.196336 -2.279665
v 2.154650 2.196336 -0.279665
v 2.154650 0.196336 -0.279665
v 1.000000 1.000000 -0.279665
v 1.000000 0.196336 -0.279665
v 1.000000 0.196336 -1.000000
v 1.000000 1.000000 -1.000000
v -1.608614 0.613371 1.309477
v -1.608614 2.613371 1.309477
v -1.608614 2.613371 -0.690523
v -1.608614 0.613371 -0.690523
v 0.391386 2.613371 -0.690523
v 0.391386 2.196336 -0.690523
v 0.154650 2.196336 -0.690523
v 0.154650 1.000000 -0.690523
v -1.000000 1.000000 -0.690523
v -1.000000 0.613371 -0.690523
v 0.391386 2.613371 1.309477
v 0.391386 0.613371 1.309477
v 0.391386 0.613371 1.000000
v 0.391386 1.000000 1.000000
v 0.391386 1.000000 -0.279665
v 0.391386 2.196336 -0.279665
v -1.000000 0.613371 1.000000
v -1.000000 1.000000 1.000000
v 0.154650 1.000000 -0.279665
v 0.154650 2.196336 -0.279665
v -0.760174 -2.308285 -0.271277
v -0.760174 -2.308285 1.728723
v -0.760174 -0.308285 1.728723
v -0.760174 -0.308285 1.000000
v -0.760174 -1.000000 1.000000
v -0.760174 -1.000000 -0.271277
v 1.239826 -0.308285 -0.271277
v 1.239826 -2.308285 -0.271277
v 1.000000 -1.000000 -0.271277
v 1.000000 -0.308285 -0.271277
v 1.239826 -0.308285 1.728723
v 1.239826 -2.308285 1.728723
v 1.000000 -0.308285 1.000000
v 1.000000 -1.000000 1.000000
vt 0.625000 0.000000
vt 0.375000 0.250000
vt 0.375000 0.000000
vt 0.625000 0.250000
vt 0.375000 0.500000
vt 0.625000 0.500000
vt 0.375000 0.750000
vt 0.625000 0.750000
vt 0.375000 1.000000
vt 0.125000 0.750000
vt 0.125000 0.500000
vt 0.875000 0.500000
vt 0.375000 0.250000
vt 0.375000 0.090042
vt 0.475458 0.090042
vt 0.625000 0.250000
vt 0.375000 0.500000
vt 0.625000 0.500000
vt 0.375000 0.750000
vt 0.625000 1.000000
vt 0.475458 1.000000
vt 0.475458 0.894331
vt 0.230669 0.750000
vt 0.230669 0.659958
vt 0.875000 0.500000
vt 0.625000 0.750000
vt 0.625000 0.500000
vt 0.524542 0.394331
vt 0.524542 0.500000
vt 0.524542 0.590042
vt 0.625000 0.590042
vt 0.730669 0.500000
vt 0.730669 0.590042
vt 0.625000 0.000000
vt 0.375000 0.250000
vt 0.375000 0.000000
vt 0.625000 0.250000
vt 0.572871 0.470408
vt 0.423329 0.326077
vt 0.625000 0.750000
vt 0.423329 0.711315
vt 0.572871 0.551357
vt 0.375000 1.000000
vt 0.375000 0.750000
vt 0.125000 0.500000
vt 0.201077 0.500000
vt 0.201077 0.711315
vt 0.875000 0.500000
vt 0.625000 0.500000
vt 0.625000 0.211315
vt 0.576671 0.000000
vt 0.576671 0.211315
vt 0.625000 1.000000
vt 0.576671 0.826077
vt 0.576671 1.000000
vt 0.875000 0.538685
vt 0.730669 0.538685
vt 0.730669 0.590042
vt 0.625000 0.051357
vt 0.475458 0.000000
vt 0.475458 0.051357
vt 0.475458 1.000000
vt 0.625000 0.970408
vt 0.475458 0.970408
vt 0.875000 0.698643
vt 0.845408 0.750000
vt 0.875000 0.750000
vt 0.625000 0.000000
vt 0.625000 0.091090
vt 0.538536 0.091090
vt 0.375000 0.250000
vt 0.538536 0.250000
vt 0.538536 0.470022
vt 0.625000 0.500000
vt 0.375000 0.750000
vt 0.375000 0.500000
vt 0.625000 0.750000
vt 0.375000 1.000000
vt 0.125000 0.750000
vt 0.125000 0.500000
vt 0.654978 0.658910
vt 0.875000 0.750000
vt 0.375000 0.750000
vt 0.461464 0.591090
vt 0.375000 0.591090
vt 0.375000 0.970022
vt 0.461464 0.750000
vt 0.154978 0.750000
vt 0.154978 0.591090
vt 0.625000 1.000000
vt 0.875000 0.750000
vt 0.475458 0.000000
vt 0.625000 0.000000
vt 0.375000 0.894331
vt 0.125000 0.659958
vt 0.125000 0.500000
vt 0.875000 0.750000
vt 0.625000 0.394331
vt 0.375000 0.326077
vt 0.572871 0.500000
vt 0.423329 0.470408
vt 0.375000 0.711315
vt 0.423329 0.551357
vt 0.625000 1.000000
vt 0.125000 0.750000
vt 0.875000 0.750000
vt 0.625000 0.000000
vt 0.625000 0.826077
vt 0.701077 0.590042
vt 0.701077 0.750000
vt 0.875000 0.750000
vt 0.625000 0.000000
vt 0.625000 1.000000
vt 0.845408 0.698643
vt 0.375000 0.000000
vt 0.625000 0.470022
vt 0.625000 1.000000
vt 0.875000 0.658910
vt 0.654978 0.500000
vt 0.461464 0.970022
vn -1.0000 -0.0000 0.0000
vn 0.0000 0.0000 -1.0000
vn 1.0000 -0.0000 0.0000
vn 0.0000 -0.0000 1.0000
vn 0.0000 -1.0000 -0.0000
vn 0.0000 1.0000 0.0000
usemtl None
s 1
f 2/1/1 4/2/1 1/3/1
f 3/4/2 6/5/2 4/2/2
f 5/6/3 8/7/3 6/5/3
f 7/8/4 1/9/4 8/7/4
f 6/5/5 1/10/5 4/11/5
f 3/12/6 7/8/6 5/6/6
f 11/13/1 12/14/1 13/15/1
f 10/16/2 16/17/2 11/13/2
f 15/18/3 18/19/3 16/17/3
f 9/20/4 14/21/4 19/22/4
f 18/19/5 20/23/5 21/24/5
f 10/25/6 17/26/6 15/18/6
f 22/27/4 12/28/4 21/29/4
f 22/27/1 20/30/1 19/31/1
f 13/32/5 19/31/5 14/33/5
f 24/34/1 26/35/1 23/36/1
f 25/37/2 29/38/2 31/39/2
f 33/40/3 36/41/3 38/42/3
f 33/40/4 23/43/4 34/44/4
f 26/45/5 32/46/5 39/47/5
f 25/48/6 33/40/6 27/49/6
f 31/50/3 39/51/3 32/52/3
f 40/53/2 35/54/2 39/55/2
f 31/56/5 30/57/5 41/58/5
f 29/59/3 41/60/3 30/61/3
f 41/62/2 38/63/2 37/64/2
f 29/65/5 38/66/5 42/67/5
f 45/68/1 46/69/1 47/70/1
f 43/71/2 48/72/2 51/73/2
f 49/74/3 54/75/3 50/76/3
f 53/77/4 44/78/4 54/75/4
f 50/76/5 44/79/5 43/80/5
f 55/81/6 45/82/6 53/77/6
f 56/83/1 52/84/1 51/85/1
f 47/86/2 55/87/2 56/83/2
f 47/88/6 51/85/6 48/89/6
f 2/1/1 3/4/1 4/2/1
f 3/4/2 5/6/2 6/5/2
f 5/6/3 7/8/3 8/7/3
f 7/8/4 2/90/4 1/9/4
f 6/5/5 8/7/5 1/10/5
f 3/12/6 2/91/6 7/8/6
f 14/92/1 9/93/1 13/15/1
f 9/93/1 10/16/1 13/15/1
f 10/16/1 11/13/1 13/15/1
f 10/16/2 15/18/2 16/17/2
f 15/18/3 17/26/3 18/19/3
f 20/94/4 18/19/4 19/22/4
f 18/19/4 17/26/4 19/22/4
f 17/26/4 9/20/4 19/22/4
f 12/95/5 11/96/5 21/24/5
f 11/96/5 16/17/5 21/24/5
f 16/17/5 18/19/5 21/24/5
f 10/25/6 9/97/6 17/26/6
f 22/27/4 13/98/4 12/28/4
f 22/27/1 21/29/1 20/30/1
f 13/32/5 22/27/5 19/31/5
f 24/34/1 25/37/1 26/35/1
f 32/99/2 26/35/2 31/39/2
f 26/35/2 25/37/2 31/39/2
f 25/37/2 27/49/2 29/38/2
f 27/49/2 28/100/2 29/38/2
f 29/38/2 30/101/2 31/39/2
f 38/42/3 28/100/3 27/49/3
f 33/40/3 34/44/3 36/41/3
f 34/44/3 35/102/3 36/41/3
f 36/41/3 37/103/3 38/42/3
f 38/42/3 27/49/3 33/40/3
f 33/40/4 24/104/4 23/43/4
f 35/102/5 34/44/5 39/47/5
f 34/44/5 23/105/5 39/47/5
f 23/105/5 26/45/5 39/47/5
f 25/48/6 24/106/6 33/40/6
f 31/50/3 40/107/3 39/51/3
f 40/53/2 36/108/2 35/54/2
f 37/109/5 36/110/5 41/58/5
f 36/110/5 40/111/5 41/58/5
f 40/111/5 31/56/5 41/58/5
f 29/59/3 42/112/3 41/60/3
f 41/62/2 42/113/2 38/63/2
f 29/65/5 28/114/5 38/66/5
f 48/72/1 43/71/1 47/70/1
f 43/71/1 44/115/1 47/70/1
f 44/115/1 45/68/1 47/70/1
f 52/116/2 49/74/2 51/73/2
f 49/74/2 50/76/2 51/73/2
f 50/76/2 43/71/2 51/73/2
f 49/74/3 53/77/3 54/75/3
f 53/77/4 45/117/4 44/78/4
f 50/76/5 54/75/5 44/79/5
f 55/81/6 46/118/6 45/82/6
f 53/77/6 49/74/6 55/81/6
f 49/74/6 52/119/6 55/81/6
f 56/83/1 55/87/1 52/84/1
f 47/86/2 46/120/2 55/87/2
f 47/88/6 56/83/6 51/85/6
